<svg width="24" height="24" viewBox="0 0 24 24" fill="none" xmlns="http://www.w3.org/2000/svg">
<path fill-rule="evenodd" clip-rule="evenodd" d="M10.3817 3.07174C8.63694 3.39048 6.93014 4.29364 5.65718 5.57171C4.64939 6.58352 3.9162 7.76345 3.47873 9.07739C2.7188 11.36 2.86624 13.7332 3.90216 15.8937C5.20067 18.6018 7.74871 20.4768 10.7438 20.9283C11.3794 21.024 12.6711 21.0239 13.3464 20.9279C14.5267 20.7602 15.7499 20.3223 16.7594 19.7061C18.1618 18.8502 19.4675 17.4179 20.1803 15.9536C20.4693 15.36 20.4835 15.1509 20.249 14.9414C20.037 14.7519 19.8776 14.7633 19.3678 15.0044C18.3358 15.4923 17.5316 15.668 16.3245 15.6692C15.3513 15.6701 14.9739 15.6107 14.0944 15.3181C11.7501 14.5381 9.99984 12.5179 9.49426 10.0086C9.37107 9.39712 9.37127 8.04648 9.49465 7.46609C9.76776 6.18152 10.3419 5.02902 11.1537 4.13598C11.3149 3.95862 11.4748 3.76092 11.5089 3.69668C11.6007 3.52374 11.5341 3.27023 11.3579 3.12194C11.1833 2.97504 10.9709 2.96408 10.3817 3.07174Z" fill="#848C9A"/>
</svg>
