<svg width="24" height="24" viewBox="0 0 24 24" fill="none" xmlns="http://www.w3.org/2000/svg">
<path d="M11.9441 22C6.46927 22 2 17.5307 2 11.9441C2 6.46927 6.46927 2 11.9441 2C17.419 2 21.8883 6.46927 21.8883 11.9441C22 17.5307 17.5307 22 11.9441 22ZM10.9385 12.0559C10.9385 12.1676 10.9385 12.2793 10.9385 12.3911C10.9385 13.6201 10.9385 14.9609 10.9385 16.1899C10.9385 17.0838 11.6089 17.8659 12.5028 17.9777C12.9497 18.0894 13.3966 17.9777 13.9553 17.9777C14.514 17.9777 14.9609 17.5307 14.9609 16.9721C14.9609 16.4134 14.514 15.9665 13.9553 15.9665C13.7318 15.9665 13.3966 15.9665 13.1732 15.9665C13.0615 15.9665 12.9497 15.9665 12.9497 15.743C12.9497 15.5196 12.9497 15.1844 12.9497 14.9609C12.9497 13.6201 12.9497 12.3911 12.9497 11.0503C12.9497 10.3799 12.5028 9.93296 11.9441 9.93296C11.6089 9.93296 11.2737 9.93296 10.9385 9.93296C10.2682 9.93296 9.82123 10.6034 10.0447 11.2737C10.1564 11.7207 10.4916 11.9441 10.9385 12.0559ZM12.9497 6.46927C12.9497 5.57542 12.2793 4.90503 11.3855 5.01676C10.6034 5.01676 9.93296 5.68715 9.93296 6.46927C9.93296 7.2514 10.6034 7.92179 11.3855 8.03352C12.2793 8.03352 12.9497 7.36313 12.9497 6.46927Z" fill="#848C9A"/>
</svg>
