<svg width="24" height="24" viewBox="0 0 24 24" fill="none" xmlns="http://www.w3.org/2000/svg">
<path opacity="0.4" d="M21.7301 14.37C21.536 14.07 21.26 13.77 20.9023 13.58C20.6162 13.44 20.4322 13.21 20.2687 12.94C19.7475 12.08 20.0541 10.95 20.9228 10.44C21.9447 9.87 22.2718 8.6 21.679 7.61L20.9943 6.43C20.4118 5.44 19.1344 5.09 18.1226 5.67C17.2233 6.15 16.0685 5.83 15.5473 4.98C15.3838 4.7 15.2918 4.4 15.3122 4.1C15.3429 3.71 15.2203 3.34 15.0363 3.04C14.6582 2.42 13.9735 2 13.2172 2H11.7763C11.0302 2.02 10.3455 2.42 9.9674 3.04C9.77323 3.34 9.66081 3.71 9.68125 4.1C9.70169 4.4 9.60972 4.7 9.4462 4.98C8.925 5.83 7.77019 6.15 6.88109 5.67C5.85913 5.09 4.59191 5.44 3.99917 6.43L3.31446 7.61C2.73194 8.6 3.05897 9.87 4.07071 10.44C4.93937 10.95 5.24596 12.08 4.73498 12.94C4.56125 13.21 4.37729 13.44 4.09115 13.58C3.74368 13.77 3.43709 14.07 3.27358 14.37C2.89546 14.99 2.9159 15.77 3.29402 16.42L3.99917 17.62C4.37729 18.26 5.08245 18.66 5.81825 18.66C6.16572 18.66 6.5745 18.56 6.90153 18.36C7.15702 18.19 7.46361 18.13 7.80085 18.13C8.81259 18.13 9.66081 18.96 9.68125 19.95C9.68125 21.1 10.6215 22 11.8069 22H13.1968C14.372 22 15.3122 21.1 15.3122 19.95C15.3429 18.96 16.1911 18.13 17.2029 18.13C17.5299 18.13 17.8365 18.19 18.1022 18.36C18.4292 18.56 18.8278 18.66 19.1855 18.66C19.911 18.66 20.6162 18.26 20.9943 17.62L21.7097 16.42C22.0776 15.75 22.1083 14.99 21.7301 14.37" fill="#8F9FB2"/>
<path d="M12.5121 14.83C10.9076 14.83 9.60974 13.58 9.60974 12.01C9.60974 10.44 10.9076 9.17999 12.5121 9.17999C14.1166 9.17999 15.3838 10.44 15.3838 12.01C15.3838 13.58 14.1166 14.83 12.5121 14.83" fill="#8F9FB2"/>
</svg>
